<svg xmlns="http://www.w3.org/2000/svg" viewBox="0 0 35.22 58.35"><defs><style>.cls-1{fill:#fff;}</style></defs><title>Asset 13</title><g id="Layer_2" data-name="Layer 2"><g id="Layer_1-2" data-name="Layer 1"><path class="cls-1" d="M0,58.35H.45c.65,0,.65,0,.65-.64q0-28.5,0-57C1.1,0,1.1,0,.41,0,.1,0,0,.07,0,.4Q0,29.19,0,58C0,58.09,0,58.2,0,58.35ZM34.12,0V.51q0,28.57,0,57.15c0,.69,0,.67.69.69.3,0,.41-.06.41-.39q0-28.79,0-57.59c0-.11,0-.22,0-.34Z"/><path d="M0,58.35c0-.14,0-.25,0-.37Q0,29.19,0,.4C0,.07.1,0,.41,0c.7,0,.7,0,.7.72q0,28.5,0,57c0,.64,0,.64-.65.64Z"/><path d="M34.12,0H35.2c0,.12,0,.23,0,.34q0,28.79,0,57.59c0,.33-.11.4-.41.39-.69,0-.69,0-.69-.69q0-28.57,0-57.15Z"/></g></g></svg>