<svg xmlns="http://www.w3.org/2000/svg" viewBox="0 0 58.35 35.22"><defs><style>.cls-1{fill:#fff;}</style></defs><title>Asset 12</title><g id="Layer_2" data-name="Layer 2"><g id="Layer_1-2" data-name="Layer 1"><path class="cls-1" d="M58.35,35.2v-.43c0-.65,0-.65-.64-.65H.72c-.71,0-.7,0-.72.7,0,.31.07.41.4.41H58ZM0,1.1H57.66c.69,0,.67,0,.69-.69,0-.3-.06-.41-.39-.41H0Z"/><path d="M58.35,35.2l-.37,0H.4c-.33,0-.4-.1-.4-.41,0-.7,0-.7.72-.7h57c.64,0,.64,0,.64.65Z"/><path d="M0,1.1V0H58c.33,0,.4.11.39.41,0,.69,0,.69-.69.69H0Z"/></g></g></svg>