<svg xmlns="http://www.w3.org/2000/svg" viewBox="0 0 58.98 58.98"><defs><style>.cls-1{fill:#848484;}</style></defs><title>Asset 15</title><g id="Layer_2" data-name="Layer 2"><g id="Layer_1-2" data-name="Layer 1"><path d="M59,29.48q0,9.67,0,19.34a9.82,9.82,0,0,1-3.84,8A9.66,9.66,0,0,1,49,59c-3.15,0-6.29,0-9.44,0q-14.7,0-29.4,0A9.79,9.79,0,0,1,2.06,55,9.58,9.58,0,0,1,0,49q0-5.22,0-10.44Q0,24.37,0,10.18A9.84,9.84,0,0,1,3.51,2.42,9.49,9.49,0,0,1,9.88,0h39A10,10,0,0,1,59,10c0,2.85,0,5.71,0,8.56Q59,24,59,29.48ZM29.46,58.34H48.71a12.19,12.19,0,0,0,1.34-.07,9.37,9.37,0,0,0,8.28-9.2q0-19.58,0-39.15a8.77,8.77,0,0,0-.16-1.64A9.41,9.41,0,0,0,48.85.62H10.13A10.22,10.22,0,0,0,9,.69,9.4,9.4,0,0,0,.63,10Q.61,29.5.63,49a8.71,8.71,0,0,0,1.25,4.59,9.15,9.15,0,0,0,8.21,4.71C16.55,58.36,23,58.34,29.46,58.34Z"/><path class="cls-1" d="M46.61,11.24,29.81,28,13.05,11.3l-.55.45L29.37,28.61,12.64,45.34l.41.49L29.87,29,46.63,45.76l.52-.42L30.34,28.53,47.16,11.71Z"/><path d="M46.61,11.24l.55.47L30.34,28.53,47.15,45.34l-.52.42L29.87,29,13.05,45.83l-.41-.49L29.37,28.61,12.5,11.75l.55-.45L29.81,28Z"/></g></g></svg>