<svg xmlns="http://www.w3.org/2000/svg" viewBox="0 0 30.59 22.72"><g id="Layer_2" data-name="Layer 2"><g id="Layer_1-2" data-name="Layer 1"><path class="cls-1" d="M0,14.51C0,12.77,0,11,0,9.3,0,7.93,0,6.56,0,5.19a2.63,2.63,0,0,1,.3-1.25A3.19,3.19,0,0,1,2.71,2.26a3.21,3.21,0,0,1,.48,0H3.4c5.87,0,11.75,0,17.62,0,1.52,0,3,0,4.55,0a3.23,3.23,0,0,1,2.1.77,3.53,3.53,0,0,1,.62.72,2.73,2.73,0,0,1,.45,1.61c0,2.66,0,5.32,0,8,0,2.11,0,4.21,0,6.32a2.66,2.66,0,0,1-.24,1.15,3.19,3.19,0,0,1-1.95,1.71,3.49,3.49,0,0,1-1.08.16c-1.25,0-2.49,0-3.74,0-4.68-.06-9.37,0-14,0-1.48,0-3,0-4.44,0a3.25,3.25,0,0,1-2-.7A2.89,2.89,0,0,1,0,19.6Q0,17.05,0,14.51Zm1.2.37q0,2.17,0,4.35a4.59,4.59,0,0,0,.06.78,1.62,1.62,0,0,0,.89,1.25,2.42,2.42,0,0,0,1,.24c1,.06,2,0,3.06,0,4.69,0,9.38,0,14.07,0,1.65,0,3.31,0,5,0a4.22,4.22,0,0,0,.8-.07,1.86,1.86,0,0,0,.86-.37,1.67,1.67,0,0,0,.57-.92,3.92,3.92,0,0,0,.09-.86c0-2.32,0-4.63,0-6.95s0-4.5,0-6.75a4.35,4.35,0,0,0-.06-.73,1.64,1.64,0,0,0-.8-1.19,2.3,2.3,0,0,0-1-.29c-1-.06-2,0-3,0-4.71,0-9.42,0-14.14,0-1.56,0-3.11,0-4.67,0l-.65,0a2.3,2.3,0,0,0-1,.3,1.57,1.57,0,0,0-.73,1,3.53,3.53,0,0,0-.11.91c0,1.58,0,3.16,0,4.75S1.21,13.35,1.21,14.88Z"/><path class="cls-2" d="M21.7,19.87h3.85c.14,0,.18,0,.18-.18q0-4,0-8a.9.9,0,0,1,0-.19c0-.06,0-.14,0-.21-.41-.37-.83-.72-1.25-1.08l-1.2-1-1.2-1L20.83,7.14q-.48-.41-1-.83a.14.14,0,0,0-.22,0c-.38.33-.78.63-1.17.94l-1.1.89c-.37.3-.74.6-1.12.88s-.78.62-1.17.94L14,10.83,12.7,11.88l-.66.53s-.06,0-.1,0l-.22-.16c-.39-.31-.8-.62-1.2-.92l-1.43-1.1c-.07-.05-.1,0-.16,0l-.73.54c-.59.46-1.18.91-1.79,1.34-.35.25-.69.52-1,.78l-1.25,1-1,.78a.21.21,0,0,0-.09.2q0,2.41,0,4.82a.61.61,0,0,1,0,.07c0,.06,0,.08.08.08.24,0,.48,0,.72,0,4.74,0,9.49,0,14.23,0C19.25,19.88,20.47,19.87,21.7,19.87ZM5.41,5.06A2.38,2.38,0,0,0,3.34,6.2a2.21,2.21,0,0,0,.2,2.56,2.41,2.41,0,0,0,2.24.82A2.26,2.26,0,0,0,7.61,8.23a2,2,0,0,0-.18-2.1,2.37,2.37,0,0,0-.63-.65A2.49,2.49,0,0,0,5.41,5.06Z"/><path class="cls-1" d="M21.7,19.87c-1.22,0-2.45,0-3.67,0-4.74-.06-9.49,0-14.23,0-.24,0-.48,0-.72,0-.06,0-.09,0-.08-.08a.61.61,0,0,0,0-.07q0-2.41,0-4.82a.21.21,0,0,1,.09-.2l1-.78,1.25-1c.34-.26.68-.53,1-.78.61-.43,1.2-.89,1.79-1.34l.73-.54c.06,0,.1-.06.16,0l1.43,1.1c.4.3.81.6,1.2.92l.22.16s.07,0,.1,0l.66-.53L14,10.83,15.09,10c.39-.31.77-.64,1.17-.94s.75-.58,1.12-.88l1.1-.89c.39-.31.79-.62,1.17-.94a.14.14,0,0,1,.22,0q.47.43,1,.83L22.06,8.2l1.2,1,1.2,1c.42.36.84.71,1.25,1.08.08.07.05.15,0,.21a.9.9,0,0,0,0,.19q0,4,0,8c0,.15,0,.18-.18.18Z"/><path class="cls-1" d="M5.41,5.06a2.49,2.49,0,0,1,1.39.42,2.37,2.37,0,0,1,.63.65,2,2,0,0,1,.18,2.1A2.26,2.26,0,0,1,5.79,9.58a2.41,2.41,0,0,1-2.24-.82,2.21,2.21,0,0,1-.2-2.56A2.38,2.38,0,0,1,5.41,5.06Z"/><path class="cls-1" d="M30.58,3.16a2.73,2.73,0,0,0-.45-1.61,3.53,3.53,0,0,0-.62-.72,3.23,3.23,0,0,0-2.1-.77c-1.52,0-3,0-4.55,0C17,0,11.12,0,5.25,0a4,4,0,0,0-.69,0A3.19,3.19,0,0,0,2.18,1.73a2.38,2.38,0,0,0-.25.73H3.18V2.41a1.57,1.57,0,0,1,.73-1,2.3,2.3,0,0,1,1-.3l.65,0c1.56,0,3.11,0,4.67,0,4.71.06,9.42,0,14.14,0,1,0,2,0,3,0a2.3,2.3,0,0,1,1,.29,1.64,1.64,0,0,1,.8,1.19,4.34,4.34,0,0,1,.06.73c0,2.25,0,4.5,0,6.75s0,4.63,0,6.95a3.92,3.92,0,0,1-.09.86,1.67,1.67,0,0,1-.57.92,1.72,1.72,0,0,1-.66.33v1a1.25,1.25,0,0,0,.33.15,3.19,3.19,0,0,0,1.95-1.71,2.66,2.66,0,0,0,.24-1.15c0-2.11,0-4.21,0-6.32C30.61,8.49,30.58,5.83,30.58,3.16Z"/></g></g></svg>