<svg xmlns="http://www.w3.org/2000/svg" viewBox="0 0 59.45 59.5"><defs><style>.cls-1{fill:#494949;}</style></defs><g id="Layer_2" data-name="Layer 2"><g id="Layer_1-2" data-name="Layer 1"><path class="cls-1" d="M29.71,59.46c-3,0-6.06.06-9.09,0A20.36,20.36,0,0,1,8.72,55.3,21,21,0,0,1,.22,41,19,19,0,0,1,0,38.3c0-5.74,0-11.48,0-17.22A20.53,20.53,0,0,1,4.34,8.55,20.93,20.93,0,0,1,17.62.39,20.57,20.57,0,0,1,21.19.05c5.7,0,11.4-.1,17.09,0a20.89,20.89,0,0,1,17.25,9,20.44,20.44,0,0,1,3.76,9.74,19.21,19.21,0,0,1,.14,2.27c0,5.74,0,11.48,0,17.22a20.54,20.54,0,0,1-4.18,12.45,21,21,0,0,1-14,8.44,26,26,0,0,1-3.64.25c-2.62,0-5.25,0-7.87,0Zm0-1.06H38A20.33,20.33,0,0,0,58.37,38c0-5.48,0-11,0-16.44A21.53,21.53,0,0,0,58,17.9,19.84,19.84,0,0,0,50.65,5.53a19.29,19.29,0,0,0-12-4.37c-5.92-.08-11.83,0-17.75,0a18.6,18.6,0,0,0-3.53.39A20.26,20.26,0,0,0,1.11,21.25c0,5.71,0,11.42,0,17.12A19.48,19.48,0,0,0,3,46.59,20.34,20.34,0,0,0,21.4,58.4Z"/><path class="cls-1" d="M29.74,36.75a13,13,0,1,1,13-13A13,13,0,0,1,29.74,36.75Z"/></g></g></svg>