<svg xmlns="http://www.w3.org/2000/svg" viewBox="0 0 58.34 36.33"><title>Asset 6</title><g id="Layer_2" data-name="Layer 2"><g id="Layer_1-2" data-name="Layer 1"><path d="M0,36.33c0-1.08,0-2.13,0-3.18C0,33.09.12,33,.2,33a.83.83,0,0,1,.28,0H57.85c.49,0,.49,0,.49.5q0,1.23,0,2.47v.39Z"/><path d="M0,18.73c0-.72,0-1.4,0-2.09,0-.05.09-.13.15-.14a1.29,1.29,0,0,1,.31,0h57.4c.46,0,.46,0,.46.45s0,1,0,1.5c0,.21-.05.32-.28.29H0Z"/><path d="M0,1.1V0H57.95c.33,0,.4.11.39.41,0,.69,0,.69-.69.69H0Z"/></g></g></svg>