<svg xmlns="http://www.w3.org/2000/svg" viewBox="0 0 52.98 59.02"><g id="Layer_2" data-name="Layer 2"><g id="Layer_1-2" data-name="Layer 1"><path class="cls-1" d="M0,29l.14-.82a9.38,9.38,0,0,1,5.44-7.31,9,9,0,0,1,5-.83,9.39,9.39,0,0,1,5.8,2.77l.19.18L34.45,12.61l-.07-.23A9.54,9.54,0,0,1,40.14.59,9.38,9.38,0,0,1,43.9,0a9.27,9.27,0,0,1,6.42,2.9,9.08,9.08,0,0,1,2.61,5.57,9.45,9.45,0,0,1-7.51,10.35,9.32,9.32,0,0,1-8.86-2.76l-.18-.2L18.51,26.19a9.66,9.66,0,0,1-.16,7L36.08,43.44l.19-.21A9.35,9.35,0,0,1,42,40.06,9.52,9.52,0,0,1,52.79,47.5,10.26,10.26,0,0,1,53,49.43a9.48,9.48,0,0,1-6.34,9,10.55,10.55,0,0,1-2.44.52L44,59H43l-.24,0A10.2,10.2,0,0,1,40,58.33a9.53,9.53,0,0,1-5.86-10.61c.06-.3.13-.6.2-.92L16.2,36.33l-.15.13A9.36,9.36,0,0,1,10.19,39a9.17,9.17,0,0,1-5.83-1.53A9.37,9.37,0,0,1,.14,30.83C.1,30.56,0,30.28,0,30S0,29.32,0,29Z"/></g></g></svg>