<svg xmlns="http://www.w3.org/2000/svg" viewBox="0 0 58.97 35.81"><title>Asset 14</title><g id="Layer_2" data-name="Layer 2"><g id="Layer_1-2" data-name="Layer 1"><path d="M29.46,35.81H18A17.5,17.5,0,0,1,7.21,32.25a17.44,17.44,0,0,1-7.1-12.4A17.86,17.86,0,0,1,13.69.51,16.49,16.49,0,0,1,17.59,0C25.52,0,33.46,0,41.4,0a17.89,17.89,0,0,1,3.35,35.4,18.73,18.73,0,0,1-3.85.38ZM29.51.64H18a17.68,17.68,0,0,0-4.12.46,17.25,17.25,0,0,0,3.73,34c7.88,0,15.77,0,23.65,0a16.93,16.93,0,0,0,2.49-.2A17.27,17.27,0,0,0,58.26,16.19a16.81,16.81,0,0,0-4.52-10A16.9,16.9,0,0,0,41.07.64C37.22.61,33.36.64,29.51.64Z"/><path d="M4.7,18.1a3.13,3.13,0,1,1,3.14,3.14A3.12,3.12,0,0,1,4.7,18.1Z"/></g></g></svg>